<?xml version="1.0" encoding="UTF-8" standalone="no"?>
<svg
   version="1.1"
   width="500"
   height="500"
   id="svg10"
   sodipodi:docname="ratekl - MarkMaker Logo.svg"
   inkscape:version="1.3.1 (91b66b0, 2023-11-16)"
   inkscape:export-filename="../ratekl - MarkMaker Logo.png"
   inkscape:export-xdpi="96"
   inkscape:export-ydpi="96"
   xmlns:inkscape="http://www.inkscape.org/namespaces/inkscape"
   xmlns:sodipodi="http://sodipodi.sourceforge.net/DTD/sodipodi-0.dtd"
   xmlns="http://www.w3.org/2000/svg"
   xmlns:svg="http://www.w3.org/2000/svg">
  <defs
     id="defs10" />
  <sodipodi:namedview
     id="namedview10"
     pagecolor="#ffffff"
     bordercolor="#000000"
     borderopacity="0.25"
     inkscape:showpageshadow="2"
     inkscape:pageopacity="0.0"
     inkscape:pagecheckerboard="0"
     inkscape:deskcolor="#d1d1d1"
     inkscape:zoom="1.3289991"
     inkscape:cx="250.18828"
     inkscape:cy="249.81206"
     inkscape:window-width="1440"
     inkscape:window-height="847"
     inkscape:window-x="0"
     inkscape:window-y="25"
     inkscape:window-maximized="1"
     inkscape:current-layer="svg10" />
  <g
     data-paper-data="{&quot;description&quot;:&quot;Logo for ratekl\n===============\n\nThis logo was generated by MarkMaker at http://emblemmatic.org/markmaker/ and may be composed of elements designed by others.\n\nThe font is Nova Flat designed by Wojciech Kalinowski and released under the OFL license via Google Fonts: https://www.google.com/fonts/specimen/Nova%20Flat. The font includes this copyright statement: Copyright (c) 2011, wmk69 (wmk69@o2.pl) with Reserved Font Names 'NovaFlat' and 'Nova Flat'. This Font Software is licensed under the SIL Open Font License, Version 1.1. This license is available with a FAQ at\n\nMarkMaker uses semantic data from the Princeton University WordNet database http://wordnet.princeton.edu and font descriptions from Google Fonts https://www.google.com/fonts.&quot;}"
     fill="#1634f7"
     fill-rule="nonzero"
     stroke="none"
     stroke-width="1"
     stroke-linecap="butt"
     stroke-linejoin="miter"
     stroke-miterlimit="10"
     stroke-dasharray=""
     stroke-dashoffset="0"
     font-family="none"
     font-weight="none"
     font-size="none"
     text-anchor="none"
     style="mix-blend-mode: normal"
     id="g10">
    <g
       data-paper-data="{&quot;elementType&quot;:&quot;logo&quot;}"
       id="g9">
      <g
         data-paper-data="{&quot;elementType&quot;:&quot;text&quot;}"
         id="g8">
        <g
           data-paper-data="{&quot;baseline&quot;:75.68359375,&quot;elementType&quot;:&quot;row&quot;}"
           id="g7">
          <g
             data-paper-data="{&quot;baselineProportion&quot;:0.9748427672955975,&quot;fontSize&quot;:100,&quot;baseline&quot;:75.68359375,&quot;elementType&quot;:&quot;word&quot;}"
             id="g6">
            <path
               d="M50,324.89328v-86.19792c0,-8.41568 4.88506,-14.88445 14.65517,-19.40631c5.27691,-2.44934 11.23302,-3.67401 17.86834,-3.67401h10.57994v0.94205l-6.26959,16.01491h-4.31034c-4.70219,0 -8.686,0.78504 -11.95141,2.35513c-3.26541,1.57009 -4.89812,3.92522 -4.89812,7.0654v74.42225l-14.89028,8.47848z"
               data-paper-data="{&quot;elementType&quot;:&quot;letter&quot;,&quot;baseline&quot;:54.6875,&quot;baselineProportion&quot;:0.9655172413793104,&quot;fontSize&quot;:100}"
               id="path1" />
            <path
               d="M165.98746,316.41479l-14.89028,8.47848h-0.7837v-5.08709c-5.01567,2.13532 -10.37095,3.20298 -16.06583,3.20298c-6.11285,0 -11.80773,-1.22467 -17.08464,-3.67401c-9.77011,-4.64747 -14.65517,-11.11623 -14.65517,-19.40631v-25.43545c0,-8.41568 4.88506,-14.88445 14.65517,-19.40631c5.27691,-2.44934 10.97179,-3.67401 17.08464,-3.67401c5.74713,0 11.1024,1.06766 16.06583,3.20298v-12.62352c0,-3.14018 -1.63271,-5.49531 -4.89812,-7.0654c-3.26541,-1.57009 -7.24922,-2.35513 -11.95141,-2.35513h-19.04389v-0.94205l6.26959,-16.01491h12.77429c6.63532,0 12.59143,1.22467 17.86834,3.67401c9.77011,4.52186 14.65517,10.99063 14.65517,19.40631v77.71944M118.18182,296.63166c0,3.14018 1.63271,5.49531 4.89812,7.0654c3.26541,1.57009 6.98798,2.35513 11.16771,2.35513c4.17973,0 7.9023,-0.78504 11.16771,-2.35513c3.26541,-1.57009 4.89812,-3.92522 4.89812,-7.0654v-18.84108c0,-3.14018 -1.63271,-5.49531 -4.89812,-7.0654c-3.26541,-1.57009 -6.98798,-2.35513 -11.16771,-2.35513c-4.17973,0 -7.91536,0.78504 -11.2069,2.35513c-3.23929,1.57009 -4.85893,3.92522 -4.85893,7.0654z"
               data-paper-data="{&quot;elementType&quot;:&quot;letter&quot;,&quot;baseline&quot;:54.6875,&quot;baselineProportion&quot;:0.9655172413793104,&quot;fontSize&quot;:100}"
               id="path2" />
            <path
               d="M199.84326,324.89328v-90.24875h-20.14107v-0.94205l6.34796,-16.20332h13.7931v-33.91394l14.89028,-8.47848h0.7837v42.39242h20.14107v0.94205l-6.34796,16.20332h-13.7931v81.77027l-14.89028,8.47848z"
               data-paper-data="{&quot;elementType&quot;:&quot;letter&quot;,&quot;baseline&quot;:75.68359375,&quot;baselineProportion&quot;:0.9748427672955975,&quot;fontSize&quot;:100}"
               id="path3" />
            <path
               d="M314.42006,279.39208v20.53677c0,8.29007 -4.88506,14.75884 -14.65517,19.40631c-5.27691,2.44934 -11.23302,3.67401 -17.86834,3.67401c-6.63532,0 -12.59143,-1.22467 -17.86834,-3.67401c-9.77011,-4.64747 -14.65517,-11.11623 -14.65517,-19.40631v-61.2335c0,-8.29007 4.88506,-14.75884 14.65517,-19.40631c5.27691,-2.44934 11.23302,-3.67401 17.86834,-3.67401c6.63532,0 12.59143,1.22467 17.86834,3.67401c9.77011,4.64747 14.65517,11.11623 14.65517,19.40631v12.05829l-49.37304,45.87802c0,3.14018 1.63271,5.49531 4.89812,7.0654c3.26541,1.57009 7.24922,2.35513 11.95141,2.35513c4.70219,0 8.686,-0.78504 11.95141,-2.35513c3.26541,-1.57009 4.89812,-3.92522 4.89812,-7.0654v-8.7611l14.89028,-8.47848h0.7837M265.04702,276.75433l33.69906,-32.59506v-2.16672c0,-3.14018 -1.63271,-5.49531 -4.89812,-7.0654c-3.26541,-1.57009 -7.24922,-2.35513 -11.95141,-2.35513c-4.70219,0 -8.686,0.78504 -11.95141,2.35513c-3.26541,1.57009 -4.89812,3.92522 -4.89812,7.0654z"
               data-paper-data="{&quot;elementType&quot;:&quot;letter&quot;,&quot;baseline&quot;:54.6875,&quot;baselineProportion&quot;:0.9824561403508771,&quot;fontSize&quot;:100}"
               id="path4" />
            <path
               d="M341.84953,324.89328v-141.30807l14.89028,-8.47848h0.7837v78.47308l32.75862,-39.84887h0.7837l13.7931,7.81905l-26.25392,29.01526c4.96343,0.43963 9.50888,1.60149 13.63636,3.4856c9.77011,4.45905 14.65517,10.92782 14.65517,19.40631v42.95765l-14.89028,8.47848h-0.7837v-48.13895c0,-3.14018 -1.63271,-5.49531 -4.89812,-7.0654c-3.26541,-1.57009 -7.24922,-2.35513 -11.95141,-2.35513c-4.70219,0 -8.686,0.78504 -11.95141,2.35513c-3.26541,1.57009 -4.89812,3.92522 -4.89812,7.0654v39.66046l-14.89028,8.47848z"
               data-paper-data="{&quot;elementType&quot;:&quot;letter&quot;,&quot;baseline&quot;:75.68359375,&quot;baselineProportion&quot;:0.9748427672955975,&quot;fontSize&quot;:100}"
               id="path5" />
            <path
               d="M434.32602,324.89328v-141.30807l14.89028,-8.47848h0.7837v141.30807l-14.89028,8.47848z"
               data-paper-data="{&quot;elementType&quot;:&quot;letter&quot;,&quot;baseline&quot;:75.68359375,&quot;baselineProportion&quot;:0.9748427672955975,&quot;fontSize&quot;:100}"
               id="path6" />
          </g>
        </g>
      </g>
    </g>
  </g>
  <path
     style="fill:#6049ee;fill-opacity:1;stroke-width:0.752446"
     d="m 50.197601,279.80979 c 0.210646,-43.87362 0.257225,-45.13482 1.78873,-48.43266 2.76621,-5.95656 10.716954,-11.67597 19.496035,-14.02457 2.106107,-0.56343 7.613318,-1.01042 12.510782,-1.01542 l 8.748552,-0.009 -3.06816,7.90069 -3.068159,7.90068 H 82.77608 c -5.924186,0 -12.454962,1.97773 -15.055944,4.55943 l -2.257337,2.2406 -0.207814,38.69301 -0.207813,38.69301 -4.306863,2.42222 c -2.368774,1.33223 -5.75859,3.25391 -7.532924,4.27041 l -3.226062,1.84818 z"
     id="path16" />
  <path
     style="fill:#6049ee;fill-opacity:1;stroke-width:0.752446"
     d="m 150.86542,321.91817 c 0,-2.23175 -0.21443,-2.58274 -1.31679,-2.15539 -16.55528,6.4179 -38.05869,0.67996 -44.82502,-11.96106 -1.54973,-2.89524 -1.63851,-4.01923 -1.63851,-20.74359 v -17.68248 l 2.05447,-3.49481 c 2.50566,-4.26233 5.44751,-6.81289 11.21773,-9.72569 10.08506,-5.09092 19.64667,-5.60665 32.81511,-1.76994 1.66892,0.48625 1.69301,0.39461 1.69301,-6.4409 0,-4.75595 -0.37282,-7.71981 -1.18682,-9.43519 -2.24287,-4.72651 -8.29111,-6.33544 -23.91252,-6.36115 -8.63439,-0.0142 -11.09436,-0.23249 -10.80692,-0.95895 0.20469,-0.51731 1.63085,-4.07261 3.16925,-7.90068 l 2.7971,-6.96013 9.89094,0.009 c 10.54452,0.01 15.22087,0.85894 21.21799,3.85405 4.80328,2.39887 9.82464,6.94156 11.84213,10.71325 1.64765,3.08029 1.66325,3.44909 1.86584,44.11456 l 0.20431,41.0083 -7.54065,4.27837 -7.54065,4.27838 z m -6.41866,-17.48242 c 5.73717,-2.56863 6.01202,-3.28006 6.28259,-16.26233 0.19593,-9.40119 0.0199,-11.94892 -0.95606,-13.83621 -3.8065,-7.36094 -24.34501,-8.31861 -30.16129,-1.40635 -1.79471,2.1329 -1.85421,2.57483 -1.85421,13.77338 0,6.83078 0.33995,12.31587 0.82994,13.39129 1.01117,2.21927 5.51993,4.8547 9.86965,5.76893 4.39658,0.92408 12.31452,0.21658 15.98938,-1.42871 z"
     id="path17" />
  <path
     style="fill:#6049ee;fill-opacity:1;stroke-width:0.752446"
     d="m 200.52685,279.15745 v -44.77053 h -10.15802 c -5.58691,0 -10.15802,-0.19482 -10.15802,-0.43293 0,-0.23811 1.38008,-3.96272 3.06684,-8.27691 l 3.06684,-7.84397 h 7.09118 7.09118 l 0.002,-17.11815 0.002,-17.11815 6.95842,-3.88488 6.95842,-3.88488 0.19983,21.00303 0.19983,21.00303 h 10.1463 c 5.58047,0 10.1463,0.15321 10.1463,0.34047 0,0.18726 -1.37948,3.91187 -3.06551,8.27691 l -3.06552,7.93643 h -7.0925 -7.09251 v 40.95176 40.95175 l -6.6732,3.81878 c -3.67026,2.10033 -6.88696,3.81878 -7.14823,3.81878 -0.26127,0 -0.47504,-20.14674 -0.47504,-44.77054 z"
     id="path18" />
  <path
     style="fill:#6049ee;fill-opacity:1;stroke-width:0.752446"
     d="m 270.70338,321.26313 c -8.87387,-2.38984 -16.12187,-7.59234 -19.15435,-13.74868 l -1.73697,-3.52628 v -34.23629 c 0,-31.18488 0.12089,-34.54956 1.35634,-37.75105 2.34744,-6.08304 10.58944,-12.20774 19.71215,-14.64827 4.457,-1.19235 16.6564,-1.31052 21.44471,-0.20772 5.14489,1.18492 12.26325,4.97389 15.65673,8.33378 4.76854,4.72134 5.69517,7.32565 5.98073,16.80898 l 0.24923,8.2769 -24.87138,22.94961 c -27.39246,25.27588 -26.65471,24.30609 -21.85928,28.73461 6.80177,6.28135 26.97226,5.15081 30.52046,-1.71066 0.64593,-1.2491 1.09552,-4.23151 1.09552,-7.26733 v -5.14884 l 7.58741,-4.26476 7.58741,-4.26476 -0.25785,12.57412 c -0.22891,11.1624 -0.44105,12.9178 -1.88958,15.63523 -3.18642,5.97773 -10.76566,11.20609 -19.56863,13.49897 -5.35616,1.39511 -16.60471,1.37577 -21.85265,-0.0376 z m 12.84905,-61.69056 c 16.66104,-16.12556 16.94145,-16.54007 14.44932,-21.35933 -3.65981,-7.07728 -24.26226,-8.09467 -30.88343,-1.52508 l -2.25734,2.23975 -0.2248,19.25768 -0.2248,19.25769 1.8072,-1.42154 c 0.99396,-0.78185 8.79419,-8.18398 17.33385,-16.44917 z"
     id="path19" />
  <path
     style="fill:#6049ee;fill-opacity:1;stroke-width:0.752446"
     d="m 342.17093,254.2851 0.19198,-70.54286 7.14824,-4.02554 7.14824,-4.02554 0.37622,39.31047 0.37622,39.31047 5.30761,-6.38847 c 2.91919,-3.51366 10.15972,-12.31399 16.09007,-19.55628 5.93035,-7.24229 11.03284,-13.44652 11.33886,-13.78718 0.55323,-0.61583 13.48565,6.19795 13.52059,7.12367 0.0101,0.2666 -5.74627,6.86931 -12.79185,14.6727 l -12.81014,14.18796 4.71507,0.95473 c 9.63248,1.95042 18.45601,7.60823 21.90027,14.04287 1.56785,2.9291 1.64827,4.08375 1.86483,26.77413 l 0.22631,23.71304 -7.56266,4.25085 -7.56267,4.25085 v -25.08448 -25.08447 l -1.90251,-2.26101 c -2.78328,-3.30774 -7.85482,-4.98266 -15.02752,-4.96294 -7.63527,0.021 -12.04096,1.31648 -15.19158,4.4671 l -2.4909,2.49089 v 21.07191 21.0719 l -4.32657,2.42488 c -2.37961,1.33369 -5.76735,3.26151 -7.52833,4.28406 l -3.20176,1.85915 z"
     id="path20" />
  <path
     style="fill:#6049ee;fill-opacity:1;stroke-width:0.752446"
     d="m 434.72178,254.31801 0.19199,-70.50995 7.01698,-4.05596 c 3.85934,-2.23078 7.16069,-4.05597 7.33634,-4.05597 0.17566,0 0.31937,31.62684 0.31937,70.28187 v 70.28187 l -4.32656,2.42488 c -2.37961,1.33369 -5.76736,3.26151 -7.52833,4.28406 l -3.20177,1.85915 z"
     id="path21" />
</svg>
